<svg width="47" height="32" viewBox="0 0 47 32" fill="none" xmlns="http://www.w3.org/2000/svg">
<rect width="8.16729" height="2.11197" transform="matrix(-1 0 0 1 46.7316 0.834778)" fill="#64FFDA"/>
<rect width="5.91086" height="2.11226" transform="matrix(0 -1 -1 0 46.7316 8.85767)" fill="#64FFDA"/>
<rect x="0.460083" y="31.8568" width="8.1674" height="2.11229" transform="rotate(-90 0.460083 31.8568)" fill="#64FFDA"/>
<rect x="8.48413" y="31.8568" width="5.91177" height="2.11229" transform="rotate(180 8.48413 31.8568)" fill="#64FFDA"/>
<rect x="25.5725" y="7.37689" width="3.89544" height="22.986" transform="rotate(-24.2475 25.5725 7.37689)" fill="#64FFDA"/>
<rect x="21.5223" y="16.2881" width="10.2657" height="3.78543" fill="#64FFDA"/>
<rect x="15.9221" y="24.7919" width="5.70632" height="3.02592" fill="#64FFDA"/>
<path fill-rule="evenodd" clip-rule="evenodd" d="M24.5907 5.77711L17.4862 26.3843L21.5145 27.7731L29.0978 5.77711H24.5907ZM29.9165 3.40265L29.9165 3.40243L29.9165 3.4024V3.40265Z" fill="#64FFDA"/>
<path fill-rule="evenodd" clip-rule="evenodd" d="M8.48413 5.77704L15.8352 27.8177L19.8773 26.4695L12.9759 5.77704H8.48413Z" fill="#64FFDA"/>
</svg>
